G04 ================== begin FILE IDENTIFICATION RECORD ==================*
G04 Layout Name:  C:/Users/user/Desktop/orcad work/1400916/allegro/1400916.brd*
G04 Film Name:    SilkT*
G04 File Format:  Gerber RS274X*
G04 File Origin:  Cadence Allegro 17.2-P019*
G04 Origin Date:  Tue Jul 30 17:00:48 2019*
G04 *
G04 Layer:  REF DES/SILKSCREEN_TOP*
G04 Layer:  PACKAGE GEOMETRY/SILKSCREEN_TOP*
G04 Layer:  BOARD GEOMETRY/SILKSCREEN_TOP*
G04 *
G04 Offset:    (0.000 0.000)*
G04 Mirror:    No*
G04 Mode:      Positive*
G04 Rotation:  0*
G04 FullContactRelief:  No*
G04 UndefLineWidth:     0.200*
G04 ================== end FILE IDENTIFICATION RECORD ====================*
%FSLAX25Y25*MOMM*%
%IR0*IPPOS*OFA0.00000B0.00000*MIA0B0*SFA1.00000B1.00000*%
%ADD10C,.4*%
%ADD11C,.203*%
%ADD12C,.2*%
G75*
%LPD*%
G75*
G54D10*
G01X3532200Y571500D02*
X3398800D01*
Y971500D01*
X3532200D01*
G01X3478800Y778200D02*
X3398800D01*
G01X3680700Y571500D02*
Y971500D01*
G01X3845900Y751500D02*
X3952600D01*
X3942600Y798200D01*
X3925900Y824800D01*
X3902600Y838200D01*
X3879200Y831500D01*
X3859200Y811500D01*
X3845900Y764800D01*
X3839200Y724800D01*
Y684800D01*
X3845900Y644800D01*
X3862600Y604800D01*
X3882600Y578200D01*
X3905900Y571500D01*
X3929200Y584800D01*
X3952600Y624800D01*
G01X4164400Y804800D02*
X4141100Y831500D01*
X4121100Y838200D01*
X4094400Y824800D01*
X4074400Y798200D01*
X4061100Y751500D01*
X4057800Y704800D01*
X4061100Y658200D01*
X4074400Y618200D01*
X4094400Y584800D01*
X4121100Y571500D01*
X4144400Y584800D01*
X4164400Y611500D01*
G01X4326300Y971500D02*
Y571500D01*
G01X4279600Y838200D02*
X4373000D01*
G01X4494800Y571500D02*
Y838200D01*
G01Y784800D02*
X4511500Y811500D01*
X4528200Y831500D01*
X4551500Y838200D01*
X4568200Y831500D01*
X4588200Y811500D01*
G01X4756700Y571500D02*
X4736700Y578200D01*
X4716700Y604800D01*
X4703400Y651500D01*
X4696700Y704800D01*
X4703400Y758200D01*
X4716700Y804800D01*
X4736700Y831500D01*
X4756700Y838200D01*
X4776700Y831500D01*
X4796700Y804800D01*
X4810000Y758200D01*
X4813400Y704800D01*
X4810000Y651500D01*
X4796700Y604800D01*
X4776700Y578200D01*
X4756700Y571500D01*
G01X4915200D02*
Y838200D01*
G01Y771500D02*
X4928600Y804800D01*
X4948600Y831500D01*
X4975200Y838200D01*
X4998600Y831500D01*
X5018600Y804800D01*
X5028600Y758200D01*
Y571500D01*
G01X5187100Y838200D02*
Y571500D01*
G01Y944800D02*
X5180400Y951500D01*
Y964800D01*
X5187100Y971500D01*
X5193800Y964800D01*
Y951500D01*
X5187100Y944800D01*
G01X5455600Y804800D02*
X5432300Y831500D01*
X5412300Y838200D01*
X5385600Y824800D01*
X5365600Y798200D01*
X5352300Y751500D01*
X5349000Y704800D01*
X5352300Y658200D01*
X5365600Y618200D01*
X5385600Y584800D01*
X5412300Y571500D01*
X5435600Y584800D01*
X5455600Y611500D01*
G01X5906000Y938200D02*
X5886000Y958200D01*
X5862700Y971500D01*
X5836000D01*
X5806000Y951500D01*
X5782700Y918200D01*
X5766000Y878200D01*
X5752700Y811500D01*
X5749400Y751500D01*
X5756000Y691500D01*
X5766000Y651500D01*
X5786000Y611500D01*
X5809400Y584800D01*
X5832700Y571500D01*
X5856000D01*
X5879400Y584800D01*
X5899400Y604800D01*
X5916000Y631500D01*
G01X5964600Y571500D02*
X6047900Y971500D01*
X6131200Y571500D01*
G01X6101200Y711500D02*
X5994600D01*
G01X6189800Y571500D02*
Y971500D01*
X6256400D01*
X6283100Y951500D01*
X6303100Y924800D01*
X6319800Y884800D01*
X6333100Y838200D01*
X6336400Y771500D01*
X6333100Y704800D01*
X6319800Y658200D01*
X6303100Y618200D01*
X6283100Y591500D01*
X6256400Y571500D01*
X6189800D01*
G01X3144800Y5778500D02*
Y6178500D01*
X3224800D01*
X3251500Y6158500D01*
X3271500Y6111800D01*
X3278200Y6058500D01*
X3271500Y6005200D01*
X3254800Y5965200D01*
X3224800Y5945200D01*
X3144800D01*
G01X3353400Y6178500D02*
Y5891800D01*
X3366700Y5831800D01*
X3393400Y5791800D01*
X3426700Y5778500D01*
X3460000Y5791800D01*
X3486700Y5831800D01*
X3500000Y5891800D01*
Y6178500D01*
G01X3575200D02*
Y5778500D01*
X3708600D01*
G01X3787100Y5831800D02*
X3813800Y5798500D01*
X3843800Y5778500D01*
X3870400D01*
X3897100Y5798500D01*
X3917100Y5831800D01*
X3927100Y5878500D01*
X3920400Y5925200D01*
X3903800Y5965200D01*
X3873800Y5991800D01*
X3833800Y6005200D01*
X3810400Y6031800D01*
X3800400Y6078500D01*
X3807100Y6125200D01*
X3823800Y6158500D01*
X3847100Y6178500D01*
X3870400D01*
X3893800Y6165200D01*
X3913800Y6131800D01*
G01X4139000Y5778500D02*
X4005600D01*
Y6178500D01*
X4139000D01*
G01X4085600Y5985200D02*
X4005600D01*
G01X4416000Y5778500D02*
Y6178500D01*
X4502700Y5845200D01*
X4589400Y6178500D01*
Y5778500D01*
G01X4717900D02*
X4691200Y5785200D01*
X4667900Y5811800D01*
X4647900Y5851800D01*
X4634600Y5898500D01*
X4627900Y5951800D01*
Y6005200D01*
X4634600Y6058500D01*
X4647900Y6105200D01*
X4667900Y6145200D01*
X4691200Y6171800D01*
X4717900Y6178500D01*
X4744600Y6171800D01*
X4767900Y6145200D01*
X4787900Y6105200D01*
X4801200Y6058500D01*
X4807900Y6005200D01*
Y5951800D01*
X4801200Y5898500D01*
X4787900Y5851800D01*
X4767900Y5811800D01*
X4744600Y5785200D01*
X4717900Y5778500D01*
G01X4859800D02*
Y6178500D01*
X4926400D01*
X4953100Y6158500D01*
X4973100Y6131800D01*
X4989800Y6091800D01*
X5003100Y6045200D01*
X5006400Y5978500D01*
X5003100Y5911800D01*
X4989800Y5865200D01*
X4973100Y5825200D01*
X4953100Y5798500D01*
X4926400Y5778500D01*
X4859800D01*
G01X5075000Y6178500D02*
Y5891800D01*
X5088300Y5831800D01*
X5115000Y5791800D01*
X5148300Y5778500D01*
X5181600Y5791800D01*
X5208300Y5831800D01*
X5221600Y5891800D01*
Y6178500D01*
G01X5296800D02*
Y5778500D01*
X5430200D01*
G01X5495400D02*
X5578700Y6178500D01*
X5662000Y5778500D01*
G01X5632000Y5918500D02*
X5525400D01*
G01X5793900Y6178500D02*
Y5778500D01*
G01X5717200Y6178500D02*
X5870600D01*
G01X5969100D02*
X6049100D01*
G01X6009100D02*
Y5778500D01*
G01X5969100D02*
X6049100D01*
G01X6224300D02*
X6197600Y5785200D01*
X6174300Y5811800D01*
X6154300Y5851800D01*
X6141000Y5898500D01*
X6134300Y5951800D01*
Y6005200D01*
X6141000Y6058500D01*
X6154300Y6105200D01*
X6174300Y6145200D01*
X6197600Y6171800D01*
X6224300Y6178500D01*
X6251000Y6171800D01*
X6274300Y6145200D01*
X6294300Y6105200D01*
X6307600Y6058500D01*
X6314300Y6005200D01*
Y5951800D01*
X6307600Y5898500D01*
X6294300Y5851800D01*
X6274300Y5811800D01*
X6251000Y5785200D01*
X6224300Y5778500D01*
G01X6362800D02*
Y6178500D01*
X6516200Y5778500D01*
Y6178500D01*
G54D11*
G01X5041900Y2533700D02*
X5022800Y2546300D01*
G01D02*
X4966500Y2630900D01*
G01D02*
X4946700Y2730500D01*
G01X5467400D02*
X5447500Y2630900D01*
G01D02*
X5391200Y2546300D01*
G01D02*
X5372100Y2533700D01*
G01D02*
X5041900D01*
G01X4946700Y2730500D02*
X4966500Y2830100D01*
G01D02*
X5022800Y2914700D01*
G01D02*
X5107400Y2971000D01*
G01D02*
X5207000Y2990900D01*
G01D02*
X5306600Y2971000D01*
G01D02*
X5391200Y2914700D01*
G01D02*
X5447500Y2830100D01*
G01D02*
X5467400Y2730500D01*
G54D12*
G01X1079500Y1905000D02*
X1587500D01*
Y1651000D01*
X1079500D01*
Y1905000D01*
G01X373000Y3127000D02*
X627000D01*
Y2111000D01*
X373000D01*
Y3127000D01*
G01X538100Y3263900D02*
X546100Y3251200D01*
X555800Y3242700D01*
X567000Y3238500D01*
X579900Y3242700D01*
X589600Y3251200D01*
X599200Y3263900D01*
X602400Y3280800D01*
Y3365500D01*
G01X699700Y3238500D02*
Y3365500D01*
X680400Y3340100D01*
G01Y3238500D02*
X719000D01*
G01X373000Y4627000D02*
X627000D01*
Y3865000D01*
X373000D01*
Y4627000D01*
G01X538100Y4724400D02*
X546100Y4711700D01*
X555800Y4703200D01*
X567000Y4699000D01*
X579900Y4703200D01*
X589600Y4711700D01*
X599200Y4724400D01*
X602400Y4741300D01*
Y4826000D01*
G01X669200Y4804800D02*
X678800Y4817500D01*
X690100Y4823900D01*
X703000Y4826000D01*
X719100Y4821800D01*
X730300Y4811200D01*
X733500Y4798500D01*
X731900Y4785800D01*
X725500Y4775200D01*
X693300Y4754000D01*
X678800Y4739200D01*
X669200Y4718000D01*
X666000Y4699000D01*
X733500D01*
G01X1558100Y2148400D02*
X1548500Y2154800D01*
X1537200Y2159000D01*
X1524400D01*
X1509900Y2152600D01*
X1498600Y2142100D01*
X1490600Y2129400D01*
X1484100Y2108200D01*
X1482500Y2089100D01*
X1485800Y2070100D01*
X1490600Y2057400D01*
X1500200Y2044700D01*
X1511500Y2036200D01*
X1522700Y2032000D01*
X1534000D01*
X1545300Y2036200D01*
X1554900Y2042600D01*
X1563000Y2051000D01*
G01X1616900Y2057400D02*
X1626500Y2042600D01*
X1639400Y2034100D01*
X1653900Y2032000D01*
X1666700Y2034100D01*
X1679600Y2044700D01*
X1687600Y2057400D01*
X1689200Y2070100D01*
X1686000Y2084900D01*
X1674800Y2095500D01*
X1663500Y2099700D01*
X1649000D01*
G01X1663500D02*
X1673200Y2106100D01*
X1681200Y2116700D01*
X1684400Y2129400D01*
X1681200Y2142100D01*
X1673200Y2152600D01*
X1658700Y2159000D01*
X1644200Y2156900D01*
X1629700Y2148400D01*
G01X2159000Y4343400D02*
Y4191000D01*
X2095500Y4127500D01*
Y4000500D01*
X2159000Y3937000D01*
Y3784600D01*
X1143000D01*
Y4343400D01*
X2159000D01*
G01X2349500Y2641600D02*
Y1930400D01*
X2095500D01*
Y2641600D01*
X2349500D01*
G01X2252600Y2730500D02*
Y2857500D01*
X2292800D01*
X2305700Y2851100D01*
X2313700Y2842700D01*
X2316900Y2825700D01*
X2313700Y2808800D01*
X2304100Y2798200D01*
X2292800Y2791900D01*
X2252600D01*
G01X2292800D02*
X2316900Y2730500D01*
G01X2383700Y2836300D02*
X2393300Y2849000D01*
X2404600Y2855400D01*
X2417500Y2857500D01*
X2433600Y2853300D01*
X2444800Y2842700D01*
X2448000Y2830000D01*
X2446400Y2817300D01*
X2440000Y2806700D01*
X2407800Y2785500D01*
X2393300Y2770700D01*
X2383700Y2749500D01*
X2380500Y2730500D01*
X2448000D01*
G01X2794000Y4356100D02*
Y3644900D01*
X2540000D01*
Y4356100D01*
X2794000D01*
G01X1995400Y4572000D02*
Y4481000D01*
X2001800Y4461900D01*
X2014700Y4449200D01*
X2030700Y4445000D01*
X2046800Y4449200D01*
X2059700Y4461900D01*
X2066100Y4481000D01*
Y4572000D01*
G01X2124900Y4470400D02*
X2134500Y4455600D01*
X2147400Y4447100D01*
X2161900Y4445000D01*
X2174700Y4447100D01*
X2187600Y4457700D01*
X2195600Y4470400D01*
X2197200Y4483100D01*
X2194000Y4497900D01*
X2182800Y4508500D01*
X2171500Y4512700D01*
X2157000D01*
G01X2171500D02*
X2181200Y4519100D01*
X2189200Y4529700D01*
X2192400Y4542400D01*
X2189200Y4555100D01*
X2181200Y4565600D01*
X2166700Y4572000D01*
X2152200Y4569900D01*
X2137700Y4561400D01*
G01X2501900Y5334000D02*
X3213100D01*
Y5080000D01*
X2501900D01*
Y5334000D01*
G01X4381500Y4343400D02*
Y4191000D01*
X4318000Y4127500D01*
Y4000500D01*
X4381500Y3937000D01*
Y3784600D01*
X3365500D01*
Y4343400D01*
X4381500D01*
G01X2697100Y4445000D02*
Y4572000D01*
X2737300D01*
X2750200Y4565600D01*
X2758200Y4557200D01*
X2761400Y4540200D01*
X2758200Y4523300D01*
X2748600Y4512700D01*
X2737300Y4506400D01*
X2697100D01*
G01X2737300D02*
X2761400Y4445000D01*
G01X2828200Y4497900D02*
X2839400Y4512700D01*
X2849100Y4521200D01*
X2862000Y4525400D01*
X2873200Y4521200D01*
X2881300Y4512700D01*
X2887700Y4500000D01*
X2889300Y4485200D01*
X2887700Y4472500D01*
X2881300Y4459800D01*
X2871600Y4449200D01*
X2860400Y4445000D01*
X2847500Y4449200D01*
X2836200Y4461900D01*
X2829800Y4481000D01*
X2828200Y4502100D01*
X2831400Y4529700D01*
X2836200Y4544500D01*
X2844300Y4559300D01*
X2855500Y4569900D01*
X2866800Y4572000D01*
X2878100Y4567800D01*
X2886100Y4557200D01*
G01X3078100Y5397500D02*
Y5524500D01*
X3118300D01*
X3131200Y5518100D01*
X3139200Y5509700D01*
X3142400Y5492700D01*
X3139200Y5475800D01*
X3129600Y5465200D01*
X3118300Y5458900D01*
X3078100D01*
G01X3118300D02*
X3142400Y5397500D01*
G01X3236500D02*
X3239700Y5425000D01*
X3244600Y5448300D01*
X3251000Y5469500D01*
X3259100Y5492700D01*
X3271900Y5524500D01*
X3207600D01*
G01X3683000Y2578100D02*
Y1866900D01*
X3429000D01*
Y2578100D01*
X3683000D01*
G01X3586100Y2667000D02*
Y2794000D01*
X3626300D01*
X3639200Y2787600D01*
X3647200Y2779200D01*
X3650400Y2762200D01*
X3647200Y2745300D01*
X3637600Y2734700D01*
X3626300Y2728400D01*
X3586100D01*
G01X3626300D02*
X3650400Y2667000D01*
G01X3767100D02*
Y2794000D01*
X3707500Y2703000D01*
X3788000D01*
G01X4546600Y5080000D02*
X3835400D01*
Y5334000D01*
X4546600D01*
Y5080000D01*
G01X5143500Y2159000D02*
Y1651000D01*
X4889500D01*
Y2159000D01*
X5143500D01*
G01X4381500Y1866900D02*
Y2578100D01*
X4635500D01*
Y1866900D01*
X4381500D01*
G01X4538600Y2667000D02*
Y2794000D01*
X4578800D01*
X4591700Y2787600D01*
X4599700Y2779200D01*
X4602900Y2762200D01*
X4599700Y2745300D01*
X4590100Y2734700D01*
X4578800Y2728400D01*
X4538600D01*
G01X4578800D02*
X4602900Y2667000D01*
G01X4700200D02*
X4711500Y2669100D01*
X4724400Y2675500D01*
X4732400Y2686000D01*
X4735600Y2700900D01*
X4732400Y2715700D01*
X4722800Y2728400D01*
X4708300Y2734700D01*
X4692200D01*
X4682600Y2739000D01*
X4674500Y2749500D01*
X4671300Y2764400D01*
X4676100Y2779200D01*
X4687400Y2789800D01*
X4700200Y2794000D01*
X4713100Y2789800D01*
X4724400Y2779200D01*
X4729200Y2764400D01*
X4726000Y2749500D01*
X4717900Y2739000D01*
X4708300Y2734700D01*
X4692200D01*
X4677700Y2728400D01*
X4668100Y2715700D01*
X4664900Y2700900D01*
X4668100Y2686000D01*
X4676100Y2675500D01*
X4689000Y2669100D01*
X4700200Y2667000D01*
G01X4217900Y4572000D02*
Y4481000D01*
X4224300Y4461900D01*
X4237200Y4449200D01*
X4253200Y4445000D01*
X4269300Y4449200D01*
X4282200Y4461900D01*
X4288600Y4481000D01*
Y4572000D01*
G01X4402100Y4445000D02*
Y4572000D01*
X4342500Y4481000D01*
X4423000D01*
G01X4411600Y5397500D02*
Y5524500D01*
X4451800D01*
X4464700Y5518100D01*
X4472700Y5509700D01*
X4475900Y5492700D01*
X4472700Y5475800D01*
X4463100Y5465200D01*
X4451800Y5458900D01*
X4411600D01*
G01X4451800D02*
X4475900Y5397500D01*
G01X4537900Y5416500D02*
X4547500Y5406000D01*
X4558800Y5399600D01*
X4573200Y5397500D01*
X4587700Y5401700D01*
X4599000Y5410200D01*
X4607000Y5425000D01*
X4608600Y5441900D01*
X4605400Y5458900D01*
X4597400Y5469500D01*
X4586100Y5477900D01*
X4574900Y5480000D01*
X4563600Y5477900D01*
X4549100Y5469500D01*
X4553900Y5524500D01*
X4597400D01*
G01X5524500Y1435100D02*
Y1587500D01*
X5588000Y1651000D01*
Y1778000D01*
X5524500Y1841500D01*
Y1993900D01*
X6540500D01*
Y1435100D01*
X5524500D01*
G01X5241100Y2338900D02*
X5231500Y2345300D01*
X5220200Y2349500D01*
X5207400D01*
X5192900Y2343100D01*
X5181600Y2332600D01*
X5173600Y2319900D01*
X5167100Y2298700D01*
X5165500Y2279600D01*
X5168800Y2260600D01*
X5173600Y2247900D01*
X5183200Y2235200D01*
X5194500Y2226700D01*
X5205700Y2222500D01*
X5217000D01*
X5228300Y2226700D01*
X5237900Y2233100D01*
X5246000Y2241500D01*
G01X5335200Y2222500D02*
Y2349500D01*
X5315900Y2324100D01*
G01Y2222500D02*
X5354500D01*
G01X5551400D02*
Y2131500D01*
X5557800Y2112400D01*
X5570700Y2099700D01*
X5586700Y2095500D01*
X5602800Y2099700D01*
X5615700Y2112400D01*
X5622100Y2131500D01*
Y2222500D01*
G01X5716200Y2095500D02*
Y2222500D01*
X5696900Y2197100D01*
G01Y2095500D02*
X5735500D01*
G01X5445700Y2984500D02*
X5432900Y2986600D01*
X5421600Y2995100D01*
X5412000Y3007800D01*
X5405500Y3022600D01*
X5402300Y3039500D01*
Y3056500D01*
X5405500Y3073400D01*
X5412000Y3088200D01*
X5421600Y3100900D01*
X5432900Y3109400D01*
X5445700Y3111500D01*
X5458600Y3109400D01*
X5469900Y3100900D01*
X5479500Y3088200D01*
X5486000Y3073400D01*
X5489200Y3056500D01*
Y3039500D01*
X5486000Y3022600D01*
X5479500Y3007800D01*
X5469900Y2995100D01*
X5458600Y2986600D01*
X5445700Y2984500D01*
G01X5458600Y3018400D02*
X5477900Y2984500D01*
G01X5575200D02*
Y3111500D01*
X5555900Y3086100D01*
G01Y2984500D02*
X5594500D01*
G01X4953000Y3848100D02*
Y4000500D01*
X5016500Y4064000D01*
Y4191000D01*
X4953000Y4254500D01*
Y4406900D01*
X5969000D01*
Y3848100D01*
X4953000D01*
G01X5905500Y4889500D02*
X5270500D01*
Y5397500D01*
X5905500D01*
Y4889500D01*
G01X5672200Y5588000D02*
X5712400Y5461000D01*
X5752700Y5588000D01*
G01X5809800Y5461000D02*
Y5588000D01*
X5850000D01*
X5862900Y5581600D01*
X5870900Y5573200D01*
X5874100Y5556200D01*
X5870900Y5539300D01*
X5861300Y5528700D01*
X5850000Y5522400D01*
X5809800D01*
G01X5850000D02*
X5874100Y5461000D01*
G01X5940900Y5566800D02*
X5950500Y5579500D01*
X5961800Y5585900D01*
X5974700Y5588000D01*
X5990800Y5583800D01*
X6002000Y5573200D01*
X6005200Y5560500D01*
X6003600Y5547800D01*
X5997200Y5537200D01*
X5965000Y5516000D01*
X5950500Y5501200D01*
X5940900Y5480000D01*
X5937700Y5461000D01*
X6005200D01*
G01X6667500Y2540000D02*
X6032500D01*
Y3048000D01*
X6667500D01*
Y2540000D01*
G01X6434200Y3238500D02*
X6474400Y3111500D01*
X6514700Y3238500D01*
G01X6571800Y3111500D02*
Y3238500D01*
X6612000D01*
X6624900Y3232100D01*
X6632900Y3223700D01*
X6636100Y3206700D01*
X6632900Y3189800D01*
X6623300Y3179200D01*
X6612000Y3172900D01*
X6571800D01*
G01X6612000D02*
X6636100Y3111500D01*
G01X6733400D02*
Y3238500D01*
X6714100Y3213100D01*
G01Y3111500D02*
X6752700D01*
G01X6159500Y3390900D02*
Y4102100D01*
X6413500D01*
Y3390900D01*
X6159500D01*
G01X6316600Y4191000D02*
Y4318000D01*
X6356800D01*
X6369700Y4311600D01*
X6377700Y4303200D01*
X6380900Y4286200D01*
X6377700Y4269300D01*
X6368100Y4258700D01*
X6356800Y4252400D01*
X6316600D01*
G01X6356800D02*
X6380900Y4191000D01*
G01X6478200D02*
Y4318000D01*
X6458900Y4292600D01*
G01Y4191000D02*
X6497500D01*
G01X5805400Y4635500D02*
Y4544500D01*
X5811800Y4525400D01*
X5824700Y4512700D01*
X5840700Y4508500D01*
X5856800Y4512700D01*
X5869700Y4525400D01*
X5876100Y4544500D01*
Y4635500D01*
G01X5934900Y4527500D02*
X5944500Y4517000D01*
X5955800Y4510600D01*
X5970200Y4508500D01*
X5984700Y4512700D01*
X5996000Y4521200D01*
X6004000Y4536000D01*
X6005600Y4552900D01*
X6002400Y4569900D01*
X5994400Y4580500D01*
X5983100Y4588900D01*
X5971900Y4591000D01*
X5960600Y4588900D01*
X5946100Y4580500D01*
X5950900Y4635500D01*
X5994400D01*
G01X7302500Y1778000D02*
Y1270000D01*
X7048500D01*
Y1778000D01*
X7302500D01*
G01Y3022600D02*
Y2311400D01*
X7048500D01*
Y3022600D01*
X7302500D01*
G01X7205600Y3111500D02*
Y3238500D01*
X7245800D01*
X7258700Y3232100D01*
X7266700Y3223700D01*
X7269900Y3206700D01*
X7266700Y3189800D01*
X7257100Y3179200D01*
X7245800Y3172900D01*
X7205600D01*
G01X7245800D02*
X7269900Y3111500D01*
G01X7331900Y3136900D02*
X7341500Y3122100D01*
X7354400Y3113600D01*
X7368900Y3111500D01*
X7381700Y3113600D01*
X7394600Y3124200D01*
X7402600Y3136900D01*
X7404200Y3149600D01*
X7401000Y3164400D01*
X7389800Y3175000D01*
X7378500Y3179200D01*
X7364000D01*
G01X7378500D02*
X7388200Y3185600D01*
X7396200Y3196200D01*
X7399400Y3208900D01*
X7396200Y3221600D01*
X7388200Y3232100D01*
X7373700Y3238500D01*
X7359200Y3236400D01*
X7344700Y3227900D01*
G01X6667500Y3784600D02*
Y3937000D01*
X6731000Y4000500D01*
Y4127500D01*
X6667500Y4191000D01*
Y4343400D01*
X7683500D01*
Y3784600D01*
X6667500D01*
G01X7336600Y1957900D02*
X7327000Y1964300D01*
X7315700Y1968500D01*
X7302900D01*
X7288400Y1962100D01*
X7277100Y1951600D01*
X7269100Y1938900D01*
X7262600Y1917700D01*
X7261000Y1898600D01*
X7264300Y1879600D01*
X7269100Y1866900D01*
X7278700Y1854200D01*
X7290000Y1845700D01*
X7301200Y1841500D01*
X7312500D01*
X7323800Y1845700D01*
X7333400Y1852100D01*
X7341500Y1860500D01*
G01X7400200Y1947300D02*
X7409800Y1960000D01*
X7421100Y1966400D01*
X7434000Y1968500D01*
X7450100Y1964300D01*
X7461300Y1953700D01*
X7464500Y1941000D01*
X7462900Y1928300D01*
X7456500Y1917700D01*
X7424300Y1896500D01*
X7409800Y1881700D01*
X7400200Y1860500D01*
X7397000Y1841500D01*
X7464500D01*
G01X7747000Y2476500D02*
Y2959100D01*
X8001000D01*
Y2476500D01*
X7747000D01*
G01Y2565400D02*
X8001000D01*
G01X7747000Y2552700D02*
X8001000D01*
G01X7950400Y3048000D02*
Y3175000D01*
X7982500D01*
X7995400Y3168600D01*
X8005100Y3160200D01*
X8013100Y3147500D01*
X8019500Y3132700D01*
X8021100Y3111500D01*
X8019500Y3090300D01*
X8013100Y3075500D01*
X8005100Y3062800D01*
X7995400Y3054300D01*
X7982500Y3048000D01*
X7950400D01*
G01X8115200D02*
Y3175000D01*
X8095900Y3149600D01*
G01Y3048000D02*
X8134500D01*
G01X7519900Y4572000D02*
Y4481000D01*
X7526300Y4461900D01*
X7539200Y4449200D01*
X7555200Y4445000D01*
X7571300Y4449200D01*
X7584200Y4461900D01*
X7590600Y4481000D01*
Y4572000D01*
G01X7654200Y4550800D02*
X7663800Y4563500D01*
X7675100Y4569900D01*
X7688000Y4572000D01*
X7704100Y4567800D01*
X7715300Y4557200D01*
X7718500Y4544500D01*
X7716900Y4531800D01*
X7710500Y4521200D01*
X7678300Y4500000D01*
X7663800Y4485200D01*
X7654200Y4464000D01*
X7651000Y4445000D01*
X7718500D01*
G01X8636000Y3086100D02*
Y2374900D01*
X8382000D01*
Y3086100D01*
X8636000D01*
G01X8539100Y3175000D02*
Y3302000D01*
X8579300D01*
X8592200Y3295600D01*
X8600200Y3287200D01*
X8603400Y3270200D01*
X8600200Y3253300D01*
X8590600Y3242700D01*
X8579300Y3236400D01*
X8539100D01*
G01X8579300D02*
X8603400Y3175000D01*
G01X8673400Y3189800D02*
X8684700Y3179200D01*
X8697500Y3175000D01*
X8710400Y3179200D01*
X8721700Y3191900D01*
X8729700Y3211000D01*
X8732900Y3230000D01*
Y3253300D01*
X8729700Y3272400D01*
X8721700Y3289300D01*
X8712000Y3297800D01*
X8700700Y3302000D01*
X8687900Y3297800D01*
X8678200Y3289300D01*
X8671800Y3276600D01*
X8668600Y3259700D01*
X8671800Y3244900D01*
X8679800Y3230000D01*
X8689500Y3221600D01*
X8700700Y3219400D01*
X8713600Y3223700D01*
X8723300Y3234300D01*
X8732900Y3253300D01*
G01X9627000Y2873000D02*
X9373000D01*
Y3381000D01*
X9627000D01*
Y2873000D01*
G01X9491600Y3517900D02*
X9499600Y3505200D01*
X9509300Y3496700D01*
X9520500Y3492500D01*
X9533400Y3496700D01*
X9543100Y3505200D01*
X9552700Y3517900D01*
X9555900Y3534800D01*
Y3619500D01*
G01X9617900Y3517900D02*
X9627500Y3503100D01*
X9640400Y3494600D01*
X9654900Y3492500D01*
X9667700Y3494600D01*
X9680600Y3505200D01*
X9688600Y3517900D01*
X9690200Y3530600D01*
X9687000Y3545400D01*
X9675800Y3556000D01*
X9664500Y3560200D01*
X9650000D01*
G01X9664500D02*
X9674200Y3566600D01*
X9682200Y3577200D01*
X9685400Y3589900D01*
X9682200Y3602600D01*
X9674200Y3613100D01*
X9659700Y3619500D01*
X9645200Y3617400D01*
X9630700Y3608900D01*
M02*
