G04 ================== begin FILE IDENTIFICATION RECORD ==================*
G04 Layout Name:  C:/Users/user/Desktop/orcad work/1400916/allegro/1400916.brd*
G04 Film Name:    SolderT*
G04 File Format:  Gerber RS274X*
G04 File Origin:  Cadence Allegro 17.2-P019*
G04 Origin Date:  Tue Jul 30 17:00:48 2019*
G04 *
G04 Layer:  VIA CLASS/SOLDERMASK_TOP*
G04 Layer:  PIN/SOLDERMASK_TOP*
G04 Layer:  PACKAGE GEOMETRY/SOLDERMASK_TOP*
G04 Layer:  BOARD GEOMETRY/SOLDERMASK_TOP*
G04 *
G04 Offset:    (0.000 0.000)*
G04 Mirror:    No*
G04 Mode:      Positive*
G04 Rotation:  0*
G04 FullContactRelief:  No*
G04 UndefLineWidth:     0.000*
G04 ================== end FILE IDENTIFICATION RECORD ====================*
%FSLAX25Y25*MOMM*%
%IR0*IPPOS*OFA0.00000B0.00000*MIA0B0*SFA1.00000B1.00000*%
%ADD11C,2.032*%
%ADD14C,1.473*%
%ADD12C,1.905*%
%ADD10C,3.683*%
%ADD13R,1.905X1.905*%
%LPD*%
G75*
G54D10*
X500000Y500000D03*
Y6500000D03*
X9500000Y500000D03*
Y6500000D03*
G54D11*
X1206500Y1778000D03*
X1460500D03*
X2222500D03*
Y2794000D03*
X2667000Y3492500D03*
Y4508500D03*
X2349500Y5207000D03*
X3365500D03*
X3556000Y1714500D03*
Y2730500D03*
X3683000Y5207000D03*
X5016500Y1778000D03*
X4508500Y1714500D03*
X5016500Y2032000D03*
X4508500Y2730500D03*
X4699000Y5207000D03*
X6286500Y3238500D03*
Y4254500D03*
X7175500Y1397000D03*
Y1651000D03*
Y2159000D03*
Y3175000D03*
X8509000Y2222500D03*
Y3238500D03*
G54D12*
X500000Y2238000D03*
Y2492000D03*
Y2746000D03*
Y3000000D03*
Y4246000D03*
Y3992000D03*
Y4500000D03*
X1270000Y3683000D03*
X1524000D03*
X1778000D03*
X1270000Y4445000D03*
X1524000D03*
X1778000D03*
X2032000Y3683000D03*
X3492500D03*
Y4445000D03*
X3746500Y3683000D03*
X4000500D03*
X4254500D03*
X3746500Y4445000D03*
X4000500D03*
X5651500Y2095500D03*
X5588000Y3746500D03*
X5334000D03*
X5588000Y5016500D03*
Y4508500D03*
X5334000D03*
X5080000D03*
X5334000Y5270500D03*
X6413500Y1333500D03*
X6159500D03*
X5905500D03*
X6350000Y2667000D03*
X6413500Y2095500D03*
X6159500D03*
X5905500D03*
X6096000Y2921000D03*
X5842000Y3746500D03*
Y4508500D03*
Y5270500D03*
X6604000Y2921000D03*
X7302500Y3683000D03*
X7048500D03*
X7302500Y4445000D03*
X7048500D03*
X6794500D03*
X7874000Y3213100D03*
X7556500Y3683000D03*
Y4445000D03*
X9500000Y3254000D03*
Y3000000D03*
G54D13*
X2032000Y4445000D03*
X4254500D03*
X5651500Y1333500D03*
X5080000Y3746500D03*
X6794500Y3683000D03*
X7874000Y2222500D03*
G54D14*
X5207000Y2857500D03*
X5334000Y2730500D03*
X5080000D03*
M02*
