G04 ================== begin FILE IDENTIFICATION RECORD ==================*
G04 Layout Name:  C:/Users/user/Desktop/orcad work/1400916/allegro/1400916.brd*
G04 Film Name:    TOP*
G04 File Format:  Gerber RS274X*
G04 File Origin:  Cadence Allegro 17.2-P019*
G04 Origin Date:  Tue Jul 30 17:00:48 2019*
G04 *
G04 Layer:  ETCH/TOP*
G04 Layer:  PIN/TOP*
G04 Layer:  VIA CLASS/TOP*
G04 *
G04 Offset:    (0.000 0.000)*
G04 Mirror:    No*
G04 Mode:      Positive*
G04 Rotation:  0*
G04 FullContactRelief:  No*
G04 UndefLineWidth:     0.000*
G04 ================== end FILE IDENTIFICATION RECORD ====================*
%FSLAX25Y25*MOMM*%
%IR0*IPPOS*OFA0.00000B0.00000*MIA0B0*SFA1.00000B1.00000*%
%ADD12C,1.524*%
%ADD11C,1.651*%
%ADD14C,1.473*%
%ADD13R,1.524X1.524*%
%ADD10C,.635*%
%ADD15C,1.*%
%ADD16C,.5*%
G75*
%LPD*%
G75*
G54D10*
X500000Y500000D03*
Y6500000D03*
X9500000Y500000D03*
Y6500000D03*
G54D11*
X1206500Y1778000D03*
X1460500D03*
X2222500D03*
Y2794000D03*
X2667000Y3492500D03*
Y4508500D03*
X2349500Y5207000D03*
X3365500D03*
X3556000Y1714500D03*
Y2730500D03*
X3683000Y5207000D03*
X5016500Y1778000D03*
X4508500Y1714500D03*
X5016500Y2032000D03*
X4508500Y2730500D03*
X4699000Y5207000D03*
X6286500Y3238500D03*
Y4254500D03*
X7175500Y1397000D03*
Y1651000D03*
Y2159000D03*
Y3175000D03*
X8509000Y2222500D03*
Y3238500D03*
G54D12*
X500000Y2238000D03*
Y2492000D03*
Y2746000D03*
Y3000000D03*
Y4246000D03*
Y3992000D03*
Y4500000D03*
X1270000Y3683000D03*
X1524000D03*
X1778000D03*
X1270000Y4445000D03*
X1524000D03*
X1778000D03*
X2032000Y3683000D03*
X3492500D03*
Y4445000D03*
X3746500Y3683000D03*
X4000500D03*
X4254500D03*
X3746500Y4445000D03*
X4000500D03*
X5651500Y2095500D03*
X5588000Y3746500D03*
X5334000D03*
X5588000Y5016500D03*
Y4508500D03*
X5334000D03*
X5080000D03*
X5334000Y5270500D03*
X6413500Y1333500D03*
X6159500D03*
X5905500D03*
X6350000Y2667000D03*
X6413500Y2095500D03*
X6159500D03*
X5905500D03*
X6096000Y2921000D03*
X5842000Y3746500D03*
Y4508500D03*
Y5270500D03*
X6604000Y2921000D03*
X7302500Y3683000D03*
X7048500D03*
X7302500Y4445000D03*
X7048500D03*
X6794500D03*
X7874000Y3213100D03*
X7556500Y3683000D03*
Y4445000D03*
X9500000Y3254000D03*
Y3000000D03*
G54D13*
X2032000Y4445000D03*
X4254500D03*
X5651500Y1333500D03*
X5080000Y3746500D03*
X6794500Y3683000D03*
X7874000Y2222500D03*
G54D14*
X5207000Y2857500D03*
X5334000Y2730500D03*
X5080000D03*
G54D15*
G01X500000Y2492000D02*
X1318000D01*
X1460500Y2349500D01*
Y1778000D01*
G01X2286000Y3873500D02*
Y3175000D01*
X2111000Y3000000D01*
X500000D01*
G01X2222500Y1968500D02*
Y2413000D01*
X1889500Y2746000D01*
X500000D01*
G01X1778000Y3683000D02*
Y3873500D01*
X1659500Y3992000D01*
X500000D01*
G01X3556000Y1714500D02*
X3358200Y1516700D01*
X1531300D01*
X1460500Y1587500D01*
Y1778000D01*
G01X1270000Y4445000D02*
Y4635500D01*
X1397000Y4762500D01*
X3314000D01*
X3492500Y4584000D01*
Y4445000D01*
G01X2222500Y1778000D02*
Y1968500D01*
G01D02*
X2540000Y2286000D01*
X5461000D01*
X5651500Y2095500D01*
G01X4000500Y3837000D02*
X3964000Y3873500D01*
X2286000D01*
G01D02*
X2032000Y4127500D01*
Y4445000D01*
G01X3556000Y1714500D02*
X4508500D01*
G01X5334000Y4508500D02*
Y4064000D01*
X5207000Y3937000D01*
X4100500D01*
X4000500Y3837000D01*
G01D02*
Y3683000D01*
G01X5016500Y1778000D02*
X4717400D01*
X4653900Y1714500D01*
X4508500D01*
G01X7175500Y1397000D02*
Y1206500D01*
X7041200Y1072200D01*
X5722300D01*
X5651500Y1143000D01*
Y1333500D01*
G01X5016500Y1778000D02*
Y1524000D01*
X5207000Y1333500D01*
X5651500D01*
G01X6350000Y2667000D02*
X5878500D01*
X5651500Y2440000D01*
Y2095500D01*
G01X7302500Y3492500D02*
X6365000D01*
X6301500Y3556000D01*
X5778500D01*
X5588000Y3746500D01*
G01X7048500Y4445000D02*
Y4572000D01*
X6914200Y4706300D01*
X5404800D01*
X5334000Y4635500D01*
Y4508500D01*
G01X6604000Y2921000D02*
X6350000Y2667000D01*
G01X7556500Y3683000D02*
X7358700Y3880800D01*
X5912800D01*
X5842000Y3810000D01*
Y3746500D01*
G01X7302500Y3492500D02*
X7556500Y3238500D01*
Y2894000D01*
X7656500Y2794000D01*
X8382000D01*
X8509000Y2921000D01*
Y3238500D01*
G01X7302500Y3683000D02*
Y3492500D01*
G01X8509000Y3238500D02*
X9345500D01*
X9361000Y3254000D01*
X9500000D01*
G54D16*
G01X2032000Y3683000D02*
Y3937000D01*
X1841500Y4127500D01*
X618500D01*
X500000Y4246000D01*
G01X1524000Y4445000D02*
Y4331000D01*
X1447500Y4254500D01*
X745500D01*
X500000Y4500000D01*
G01X2222500Y2794000D02*
X3372100D01*
X3435600Y2730500D01*
X3556000D01*
G01X2667000Y3492500D02*
X3556000D01*
X3746500Y3683000D01*
G01X4000500Y4445000D02*
Y4318000D01*
X3937000Y4254500D01*
X2730500D01*
X2667000Y4318000D01*
Y4508500D01*
G01X3365500Y5207000D02*
X3683000D01*
G01X5334000Y2730500D02*
Y2526500D01*
X5220500Y2413000D01*
X3619500D01*
X3556000Y2476500D01*
Y2730500D01*
G01X5334000Y3746500D02*
Y3619500D01*
X5207000Y3492500D01*
X3810000D01*
X3746500Y3556000D01*
Y3683000D01*
G01X4699000Y5207000D02*
Y4953000D01*
X4826000Y4826000D01*
X5665000D01*
X5842000Y5003000D01*
Y5016500D01*
G01X5207000Y2857500D02*
X5318400D01*
X5381900Y2921000D01*
X6096000D01*
G01X7874000Y3213100D02*
Y3810000D01*
X7620000Y4064000D01*
X5715000D01*
X5588000Y4191000D01*
Y4508500D01*
G01X7175500Y1651000D02*
X6604000D01*
X6413500Y1841500D01*
Y2095500D01*
G01X5905500D02*
X6159500D01*
G01D02*
X6223000Y2159000D01*
Y2299500D01*
X6273000Y2349500D01*
X6985000D01*
X7175500Y2159000D01*
G01X6286500Y3238500D02*
X6308200Y3260200D01*
X7090300D01*
X7175500Y3175000D01*
G01X7302500Y4445000D02*
Y4635500D01*
X7112000Y4826000D01*
X6032500D01*
X5842000Y5016500D01*
G01Y5270500D02*
Y5016500D01*
G01X7874000Y2222500D02*
X8509000D01*
G01D02*
X9398000D01*
X9500000Y2324500D01*
Y3000000D01*
M02*
